<svg width="275" height="171" viewBox="0 0 275 171" fill="none" xmlns="http://www.w3.org/2000/svg">
<g filter="url(#filter0_d_2393_645)">
<mask id="mask0_2393_645" style="mask-type:luminance" maskUnits="userSpaceOnUse" x="-9" y="0" width="280" height="171">
<path d="M-9 0H271V170.657H-9V0Z" fill="white"/>
</mask>
<g mask="url(#mask0_2393_645)">
<path fill-rule="evenodd" clip-rule="evenodd" d="M-45 86.3989C-45 86.3989 -43.3025 88.7038 -40.4428 92.4062C-30.2548 105.596 -16.6297 128.561 -1.1406 136.187C18.6963 145.953 39.2917 145.234 39.2917 145.234C39.2917 145.234 53.1751 67.3658 53.8834 68.5903C54.5918 69.8148 29.5613 57.9003 16.3683 54.2672C3.1752 50.634 -11.7686 36.874 -15.799 32.5068" fill="white"/>
<path d="M-45 86.5586C-45 86.5586 -20.8626 126.457 -0.993202 136.187C18.8763 145.919 39.5399 144.972 39.5399 144.972L56.7928 69.1757C56.7928 69.1757 15.1627 60.4514 -15.6516 32.5068" stroke="#61453A" stroke-width="3" stroke-linecap="square" stroke-linejoin="round"/>
<path fill-rule="evenodd" clip-rule="evenodd" d="M54.9957 68.3657C50.412 68.0087 40.6416 66.7568 32.0858 102.384C23.5299 138.01 35.0557 145.289 39.0861 144.446C43.1166 143.603 50.8947 140.232 63.4809 107.9C76.0672 75.5678 59.5795 68.7228 54.9957 68.3657Z" fill="white" stroke="#61453A" stroke-width="3" stroke-linecap="round" stroke-linejoin="round"/>
<mask id="mask1_2393_645" style="mask-type:luminance" maskUnits="userSpaceOnUse" x="69" y="24" width="202" height="74">
<path fill-rule="evenodd" clip-rule="evenodd" d="M85.7941 29.5877C87.2291 28.5422 108.168 14.6474 157.314 40.4642C203.736 64.8514 250.755 36.787 259.207 31.1719C259.487 30.985 259.954 31.4703 259.802 31.7854L251.259 49.6147C251.124 49.8958 251.306 50.2315 251.598 50.2368C253.801 50.2803 261.484 50.4123 270.087 50.3293C270.443 50.325 270.644 50.7665 270.383 51.0306C264.582 56.9114 223.641 97.2173 191.625 97.068C157.089 96.9062 138.421 88.0776 116.363 81.3646C94.642 74.7544 82.3153 72.433 69 74.7646C69 74.7646 82.2111 39.9132 85.1411 31.4512C85.5501 30.2689 85.7871 29.5929 85.7941 29.5877Z" fill="white"/>
</mask>
<g mask="url(#mask1_2393_645)">
<path fill-rule="evenodd" clip-rule="evenodd" d="M85.7941 29.5877C87.2291 28.5422 108.168 14.6474 157.314 40.4642C203.736 64.8514 250.755 36.787 259.207 31.1719C259.487 30.985 259.954 31.4703 259.802 31.7854L251.259 49.6147C251.124 49.8958 251.306 50.2315 251.598 50.2368C253.801 50.2803 261.484 50.4123 270.087 50.3293C270.443 50.325 270.644 50.7665 270.383 51.0306C264.582 56.9114 223.641 97.2173 191.625 97.068C157.089 96.9062 138.421 88.0776 116.363 81.3646C94.642 74.7544 82.3153 72.433 69 74.7646C69 74.7646 82.2111 39.9132 85.1411 31.4512C85.5501 30.2689 85.7871 29.5929 85.7941 29.5877Z" fill="#FF7D70" stroke="#61453A" stroke-width="6"/>
</g>
<path fill-rule="evenodd" clip-rule="evenodd" d="M98.0872 38.7833C97.5502 41.9915 96.5222 47.5024 94.3792 54.6198C89.9426 65.9666 97.4402 64.1473 99.6032 59.4345C100.885 56.8327 102.204 54.0087 102.204 54.0087L108.923 56.8365C108.923 56.8365 108.368 60.1553 107.803 62.9C105.661 70.0174 111.828 69.191 113.554 63.9335C114.324 61.2293 117.904 49.9405 118.903 43.9665C120.388 40.1475 115.371 36.6307 113.069 42.8023C111.843 45.0724 109.848 50.0471 109.848 50.0471C109.848 50.0471 104.3 47.7969 104.235 47.5554C104.02 46.9412 104.708 45.3632 104.743 43.8844C104.446 33.6507 98.8092 34.4687 98.0872 38.7833Z" fill="white"/>
<path fill-rule="evenodd" clip-rule="evenodd" d="M128.292 46.4082C130.02 42.7205 131.989 42.1102 133.451 42.2855C134.083 42.3447 134.935 43.7393 135.586 45.0784C137.699 53.8857 133.784 70.0474 133.099 71.1311C130.74 75.2214 126.631 74.4263 128.211 70.003C128.951 67.3146 129.742 64.8716 129.742 64.8716L124.422 64.2029C120.205 72.9867 116.46 69.2829 118.642 65.4902C120.977 61.0458 125.955 51.315 128.292 46.4082ZM126.488 57.7147L131.731 58.7095C131.731 58.7095 133.228 48.7059 131.585 49.7546L126.488 57.7147Z" fill="white"/>
<path fill-rule="evenodd" clip-rule="evenodd" d="M155.057 54.9858C155.759 52.869 154.335 48.0678 149.288 48.8438C141.982 48.8668 139.399 62.7244 139.399 62.7244C139.399 62.7244 138.157 69.4363 140.055 74.0231C141.779 78.4456 146.004 78.4794 146.824 78.5952C151.625 77.0555 149.997 73.5858 149.177 73.471C148.134 73.4077 146.717 73.587 145.578 72.5708C143.645 70.8683 144.008 66.5716 144.439 64.2617C145.445 60.3785 147.659 52.6677 151.132 54.5732C153.209 57.475 154.68 56.1533 155.057 54.9858Z" fill="white"/>
<path fill-rule="evenodd" clip-rule="evenodd" d="M159.318 54.6601C158.016 58.9046 159.608 63.3892 156.365 71.4654C155.59 73.438 153.698 77.0538 153.473 77.5672C151.68 81.2114 155.284 83.3803 159.289 77.0172C160.26 75.5625 161.337 71.8307 161.337 71.8307L163.069 71.628C163.069 71.628 164.553 78.8484 164.889 81.9403C165.249 84.9242 170.118 86.6433 170.211 80.791C170.045 78.7842 169.411 76.069 168.212 72.6183C168.212 72.6183 167.429 70.0909 166.663 69.7598C166.663 69.7598 172.126 63.9233 172.653 61.651C173.206 59.2707 172.222 57.6095 167.952 61.4777C163.684 65.346 163.185 66.5881 163.185 66.5881C163.185 66.5881 164.216 61.6913 164.131 57.9778C164.515 54.052 160.443 51.1734 159.318 54.6601Z" fill="white"/>
<path fill-rule="evenodd" clip-rule="evenodd" d="M186.897 62.3571C185.064 64.3094 183.901 67.9836 184.007 73.5525C184.228 81.8653 187.387 86.6556 192.817 85.7308C198.248 84.8046 196.987 80.5559 196.488 80.4138C196.088 80.299 195.989 79.8003 193.761 80.6961C191.531 81.5924 189.86 80.5259 188.471 76.8302C187.555 74.33 187.072 69.4783 188.757 66.7774C189.26 65.9775 189.735 65.7603 189.986 65.5956C190.989 64.9386 192.012 65.5849 192.187 65.7515C194.98 67.9626 195.538 65.5301 194.546 63.361C192.581 60.3251 189.957 59.695 186.897 62.3571Z" fill="white"/>
<path fill-rule="evenodd" clip-rule="evenodd" d="M199 62.69C198.986 59.5348 202.002 57.1166 203.03 64.1765C204.318 68.7416 203.95 77.5543 204.573 78.3734C205.197 79.1925 209.864 78.0753 211.128 77.6205C212.391 77.1672 214.714 77.7819 214.184 79.149C213.752 80.5456 212.548 80.6721 212.297 80.8344C212.047 80.9976 201.496 84.3323 201.113 82.0772C200.731 79.8219 200.71 78.7853 200.331 74.946C199.952 71.1052 199.014 65.8452 199 62.69Z" fill="white"/>
<path fill-rule="evenodd" clip-rule="evenodd" d="M212.016 59.7637C211.796 57.482 213.948 56.0984 215.203 58.5532C216.155 60.4561 217.239 68.7067 218.793 72.1802C219.646 73.5879 221.413 73.8498 222.252 72.5656C223.244 70.6225 222.553 65.755 221.96 61.849C221.537 59.978 221.046 58.5463 221.076 57.5024C221.467 53.9894 224.065 54.8351 225.265 58.443C226.262 62.4617 227.29 68.9521 226.752 71.2556C226.239 73.4489 225.699 76.2195 223.07 76.8849C222.387 77.0445 216.702 77.9053 214.73 71.159C212.834 64.083 212.236 62.0455 212.016 59.7637Z" fill="white"/>
<path fill-rule="evenodd" clip-rule="evenodd" d="M229.676 52.3897C233.18 50.1174 235.804 49.3445 237.849 50.1559C239.044 50.9589 239.811 53.1562 239.48 55.0424C239.1 56.6833 238.47 58.0194 238.47 58.0194C240.543 58.2553 242.052 60.5048 242.434 63.4405C242.817 66.3762 240.255 69.125 235.505 70.8123C233.905 71.2923 232.208 71.2787 232.134 70.6756C232.088 69.4971 228.117 55.4447 228.117 55.4447C227.995 54.594 227.574 53.6605 229.676 52.3897ZM231.115 54.8935L232.848 59.3434C232.848 59.3434 237.099 57.5156 236.609 55.0467C236.117 52.5782 233.441 54.0358 231.115 54.8935ZM233.435 62.7713C233.435 62.7713 234.615 68.2309 234.566 67.9843C234.542 67.6275 240.761 66.3162 239.449 62.7993C238.137 59.2839 233.435 62.7713 233.435 62.7713Z" fill="white"/>
<path d="M85.5 30.3398L49 128.213H52.6986L87.9525 32.5069L85.5 30.3398Z" fill="#61453A"/>
<path fill-rule="evenodd" clip-rule="evenodd" d="M56 93.3171C57.697 94.0832 67.3843 94.1599 65.4751 97.7609C63.5659 101.362 70.4955 106.878 74.3138 99.8295C78.1321 92.7808 72.9703 83.6634 65.1922 85.9618C57.4141 88.2604 56 93.3171 56 93.3171Z" fill="white" stroke="#61453A" stroke-width="3" stroke-linecap="round" stroke-linejoin="round"/>
<path fill-rule="evenodd" clip-rule="evenodd" d="M50 110.653C51.697 111.42 61.3843 111.496 59.4751 115.098C57.5659 118.699 64.4955 124.215 68.3139 117.167C72.1322 110.117 66.9703 101 59.1922 103.299C51.4141 105.597 50 110.653 50 110.653Z" fill="white" stroke="#61453A" stroke-width="3" stroke-linecap="round" stroke-linejoin="round"/>
<path fill-rule="evenodd" clip-rule="evenodd" d="M46 129.074C47.697 129.84 57.3842 129.917 55.4751 133.518C53.5659 137.119 60.4954 142.635 64.3138 135.587C68.1321 128.537 62.9702 119.42 55.1921 121.719C47.4141 124.017 46 129.074 46 129.074Z" fill="white" stroke="#61453A" stroke-width="3" stroke-linecap="round" stroke-linejoin="round"/>
</g>
</g>
<defs>
<filter id="filter0_d_2393_645" x="-13" y="24.9219" width="287.502" height="129.575" filterUnits="userSpaceOnUse" color-interpolation-filters="sRGB">
<feFlood flood-opacity="0" result="BackgroundImageFix"/>
<feColorMatrix in="SourceAlpha" type="matrix" values="0 0 0 0 0 0 0 0 0 0 0 0 0 0 0 0 0 0 127 0" result="hardAlpha"/>
<feOffset dy="4"/>
<feGaussianBlur stdDeviation="2"/>
<feComposite in2="hardAlpha" operator="out"/>
<feColorMatrix type="matrix" values="0 0 0 0 0 0 0 0 0 0 0 0 0 0 0 0 0 0 0.25 0"/>
<feBlend mode="normal" in2="BackgroundImageFix" result="effect1_dropShadow_2393_645"/>
<feBlend mode="normal" in="SourceGraphic" in2="effect1_dropShadow_2393_645" result="shape"/>
</filter>
</defs>
</svg>
