<svg width="477" height="273" viewBox="0 0 477 273" fill="none" xmlns="http://www.w3.org/2000/svg">
<path d="M47.9897 126.848C37.5265 126.848 28.3856 125.355 20.567 122.367C13.4121 119.486 6.75313 115.069 0.590072 109.115C-0.199867 108.352 -0.192795 107.092 0.584119 106.315L19.3624 87.5503C20.1289 86.7844 21.3638 86.7711 22.1723 87.4924C26.225 91.1083 30.4616 93.9436 34.882 95.9981C39.8261 98.1812 45.1152 99.2727 50.7492 99.2727C55.4634 99.2727 59.0278 98.5833 61.4424 97.2045C63.857 95.7109 65.0643 93.7001 65.0643 91.1723C65.0643 88.6446 64.0295 86.5764 61.9598 84.9678C59.8902 83.2443 57.1306 81.7506 53.6812 80.4867C50.3468 79.108 46.61 77.7292 42.4707 76.3504C38.4464 74.9716 34.4221 73.3056 30.3978 71.3523C26.3735 69.399 22.6366 67.0436 19.1872 64.286C15.8528 61.4135 13.1507 57.9091 11.0811 53.7727C9.01146 49.5215 7.97664 44.351 7.97664 38.2614C7.97664 30.3333 9.87382 23.4968 13.6682 17.7519C17.4625 12.0069 22.8091 7.64079 29.7079 4.65341C36.6067 1.55114 44.7128 0 54.0262 0C63.2246 0 71.7331 1.49369 79.5518 4.48106C86.7907 7.10202 92.881 10.7752 97.8225 15.5007C98.6112 16.2549 98.592 17.5061 97.817 18.2744L78.8742 37.0536C78.1009 37.8203 76.8591 37.8241 76.0515 37.0937C72.734 34.0937 69.4166 31.8402 66.0991 30.3333C62.3048 28.495 58.1655 27.5758 53.6812 27.5758C50.1169 27.5758 47.2424 28.1503 45.0577 29.2992C42.9881 30.4482 41.9533 32.1717 41.9533 34.4697C41.9533 36.8826 42.9881 38.8933 45.0577 40.5019C47.1274 41.9956 49.8294 43.3744 53.1638 44.6383C56.6132 45.9021 60.3501 47.2235 64.3744 48.6023C68.5137 49.9811 72.5955 51.6471 76.6198 53.6004C80.6441 55.4388 84.3234 57.8516 87.6579 60.839C91.1073 63.7115 93.8668 67.3308 95.9364 71.697C98.0061 76.0631 99.0409 81.3485 99.0409 87.553C99.0409 100.077 94.5567 109.786 85.5882 116.68C76.7348 123.459 64.2019 126.848 47.9897 126.848Z" fill="white"/>
<path d="M118.87 124.78C117.765 124.78 116.87 123.885 116.87 122.78V4.06818C116.87 2.96361 117.765 2.06819 118.87 2.06819H149.364C150.469 2.06819 151.364 2.96362 151.364 4.06819V122.78C151.364 123.885 150.469 124.78 149.364 124.78H118.87ZM193.032 124.78C191.928 124.78 191.032 123.885 191.032 122.78V4.06818C191.032 2.96361 191.928 2.06819 193.032 2.06819H223.526C224.631 2.06819 225.526 2.96362 225.526 4.06819V122.78C225.526 123.885 224.631 124.78 223.526 124.78H193.032ZM137.669 76.5227C136.565 76.5227 135.669 75.6273 135.669 74.5227V49.9129C135.669 48.8083 136.565 47.9129 137.669 47.9129H202.485C203.589 47.9129 204.485 48.8083 204.485 49.9129V74.5227C204.485 75.6273 203.589 76.5227 202.485 76.5227H137.669Z" fill="white"/>
<path d="M251.335 124.78C250.231 124.78 249.335 123.885 249.335 122.78V4.06818C249.335 2.96361 250.231 2.06819 251.335 2.06819H281.829C282.934 2.06819 283.829 2.96362 283.829 4.06819V122.78C283.829 123.885 282.934 124.78 281.829 124.78H251.335ZM279.275 124.78C278.171 124.78 277.275 123.885 277.275 122.78V98.1705C277.275 97.0659 278.171 96.1705 279.275 96.1705H341.159C342.264 96.1705 343.159 97.0659 343.159 98.1705V122.78C343.159 123.885 342.264 124.78 341.159 124.78H279.275ZM279.275 76.178C278.171 76.178 277.275 75.2826 277.275 74.178V50.2576C277.275 49.153 278.171 48.2576 279.275 48.2576H334.778C335.882 48.2576 336.778 49.153 336.778 50.2576V74.178C336.778 75.2826 335.882 76.178 334.778 76.178H279.275ZM279.275 30.678C278.171 30.678 277.275 29.7826 277.275 28.678V4.06818C277.275 2.96361 278.171 2.06819 279.275 2.06819H340.124C341.229 2.06819 342.124 2.96362 342.124 4.06819V28.678C342.124 29.7826 341.229 30.678 340.124 30.678H279.275Z" fill="white"/>
<path d="M364.936 124.78C363.832 124.78 362.936 123.885 362.936 122.78V4.06818C362.936 2.96361 363.832 2.06819 364.936 2.06819H387.082L397.287 27.5626C397.382 27.799 397.43 28.0513 397.43 28.3059V122.78C397.43 123.885 396.535 124.78 395.43 124.78H364.936ZM447.447 124.78L376.888 36.1742C376.469 35.6481 376.342 34.9466 376.551 34.3073L387.082 2.06819L457.641 90.6743C458.06 91.2004 458.187 91.9018 457.978 92.5412L447.447 124.78ZM447.447 124.78L438.917 97.8439C438.855 97.6486 438.823 97.445 438.823 97.2401V4.06819C438.823 2.96362 439.719 2.06819 440.823 2.06819H471.317C472.422 2.06819 473.317 2.96362 473.317 4.06819V122.78C473.317 123.885 472.422 124.78 471.317 124.78H447.447Z" fill="white"/>
<path d="M2.63007 249.044L58.6001 175.038C58.9781 174.538 59.5686 174.244 60.1953 174.244H101.283L45.1406 248.252C44.7624 248.751 44.1728 249.044 43.5472 249.044H2.63007ZM4.63007 273C3.5255 273 2.63007 272.105 2.63007 271V249.044L21.2007 244.617C21.3526 244.581 21.5082 244.562 21.6644 244.562H97.7308C98.8354 244.562 99.7308 245.458 99.7308 246.563V271C99.7308 272.105 98.8354 273 97.7308 273H4.63007ZM7.38959 178.725C6.28502 178.725 5.38959 177.83 5.38959 176.725V152.288C5.38959 151.183 6.28502 150.288 7.38959 150.288H99.283C100.388 150.288 101.283 151.183 101.283 152.288V174.244L82.3637 178.673C82.2143 178.708 82.0613 178.725 81.9079 178.725H7.38959Z" fill="white"/>
<path d="M121.733 273C120.629 273 119.733 272.105 119.733 271V152.288C119.733 151.183 120.629 150.288 121.733 150.288H152.227C153.332 150.288 154.227 151.183 154.227 152.288V271C154.227 272.105 153.332 273 152.227 273H121.733ZM195.895 273C194.791 273 193.895 272.105 193.895 271V152.288C193.895 151.183 194.791 150.288 195.895 150.288H226.389C227.494 150.288 228.389 151.183 228.389 152.288V271C228.389 272.105 227.494 273 226.389 273H195.895ZM140.533 224.742C139.428 224.742 138.533 223.847 138.533 222.742V198.133C138.533 197.028 139.428 196.133 140.533 196.133H205.348C206.453 196.133 207.348 197.028 207.348 198.133V222.742C207.348 223.847 206.453 224.742 205.348 224.742H140.533Z" fill="white"/>
<path d="M254.198 273C253.094 273 252.198 272.105 252.198 271V152.288C252.198 151.183 253.094 150.288 254.198 150.288H284.693C285.797 150.288 286.693 151.183 286.693 152.288V271C286.693 272.105 285.797 273 284.693 273H254.198ZM282.139 273C281.034 273 280.139 272.105 280.139 271V246.39C280.139 245.286 281.034 244.39 282.139 244.39H344.022C345.127 244.39 346.022 245.286 346.022 246.39V271C346.022 272.105 345.127 273 344.022 273H282.139ZM282.139 224.398C281.034 224.398 280.139 223.502 280.139 222.398V198.477C280.139 197.373 281.034 196.477 282.139 196.477H337.641C338.745 196.477 339.641 197.373 339.641 198.477V222.398C339.641 223.502 338.745 224.398 337.641 224.398H282.139ZM282.139 178.898C281.034 178.898 280.139 178.002 280.139 176.898V152.288C280.139 151.183 281.034 150.288 282.139 150.288H342.987C344.092 150.288 344.987 151.183 344.987 152.288V176.898C344.987 178.002 344.092 178.898 342.987 178.898H282.139Z" fill="white"/>
<path d="M367.8 273C366.695 273 365.8 272.105 365.8 271V152.288C365.8 151.183 366.695 150.288 367.8 150.288H389.946L400.151 175.782C400.245 176.019 400.294 176.271 400.294 176.526V271C400.294 272.105 399.398 273 398.294 273H367.8ZM450.31 273L379.751 184.394C379.332 183.868 379.206 183.166 379.414 182.527L389.946 150.288L460.505 238.894C460.924 239.42 461.05 240.122 460.841 240.761L450.31 273ZM450.31 273L441.78 246.064C441.718 245.868 441.687 245.665 441.687 245.46V152.288C441.687 151.183 442.582 150.288 443.687 150.288H474.181C475.285 150.288 476.181 151.183 476.181 152.288V271C476.181 272.105 475.285 273 474.181 273H450.31Z" fill="white"/>
</svg>
